<?xml version="1.0" encoding="utf-8"?>
<!-- Generator: Adobe Illustrator 25.0.1, SVG Export Plug-In . SVG Version: 6.00 Build 0)  -->
<svg version="1.0" id="katman_1" xmlns="http://www.w3.org/2000/svg" xmlns:xlink="http://www.w3.org/1999/xlink" x="0px" y="0px"
	 viewBox="0 0 800 600" style="enable-background:new 0 0 800 600;" xml:space="preserve">
<style type="text/css">
	.st0{fill:#FF4785;}
	.st1{fill:#FFFFFF;}
	.st2{fill:#1E3764;}
	.st3{fill:url(#SVGID_1_);}
	.st4{fill:url(#SVGID_2_);}
</style>
<g transform="matrix(4.16667,0,0,4.16667,0,0)">
	<path class="st0" d="M45.5,77.7V31.2c0-5.3,4.3-9.6,9.6-9.6h81.6c5.3,0,9.6,4.3,9.6,9.6v46.5H45.5z"/>
</g>
<g transform="matrix(4.16667,0,0,4.16667,0,1000.09)">
	<path class="st1" d="M45.5-162.3v35.1c0,5.3,4.3,9.6,9.6,9.6h81.6c5.3,0,9.6-4.3,9.6-9.6v-35.1H45.5z"/>
</g>
<g transform="matrix(4.16667,0,0,4.16667,638.169,148.314)">
	<path class="st1" d="M-43.3,11.1c-2.8,0-5.1-2.3-5.1-5.1c0-2.8,2.3-5.1,5.1-5.1s5.1,2.3,5.1,5.1C-38.2,8.8-40.5,11.1-43.3,11.1
		 M-71.2,11.1c-2.8,0-5.1-2.3-5.1-5.1c0-2.8,2.3-5.1,5.1-5.1c2.8,0,5.1,2.3,5.1,5.1C-66.1,8.8-68.4,11.1-71.2,11.1 M-43.3-5.3
		c-2.5,0-4.7,0.8-6.6,2.1L-60,4.2c-0.9-5.4-5.5-9.5-11.2-9.5c-6.3,0-11.3,5.1-11.3,11.3c0,6.3,5.1,11.3,11.3,11.3
		c2.5,0,4.8-0.8,6.6-2.1l10.1-7.3c0.9,5.4,5.5,9.5,11.2,9.5C-37,17.3-32,12.3-32,6C-32-0.3-37-5.3-43.3-5.3"/>
</g>
<g transform="matrix(4.16667,0,0,4.16667,590.618,405.241)">
	<path class="st1" d="M-36.7-32.9c0-1.1-0.9-2-2-2c-1.1,0-2,0.9-2,2c0,1.1,0.9,2,2,2C-37.6-30.9-36.7-31.8-36.7-32.9 M-34.1-32.9
		c0,2.6-2.1,4.6-4.6,4.6c-2.5,0-4.6-2.1-4.6-4.6s2.1-4.6,4.6-4.6C-36.1-37.5-34.1-35.4-34.1-32.9 M-52.4-37.4H-55l-1.9,4.8l-2-4.8
		h-2.8l3.6,8.1l-1.2,3.2h2.7L-52.4-37.4z M-28.6-37.4c-0.6,0-1.1,0.1-1.7,0.3v-0.3h-2.6v9.2h2.6v-4.8c0-1.6,1.5-1.7,1.7-1.7
		c0.4,0,0.8,0.1,1.1,0.4c0.3,0.3,0.5,0.7,0.5,1.3v4.7h2.6v-4.7C-24.4-35.9-26.5-37.4-28.6-37.4 M-65.4-33.1c-0.1-1-0.9-1.7-1.9-1.7
		c-1.1,0-2,0.9-2,2c0,1.1,0.9,2,2,2c1,0,1.8-0.8,1.9-1.7V-33.1z M-62.7-28.3h-2.6v-0.4c-0.6,0.3-1.2,0.4-1.9,0.4
		c-2.5,0-4.6-2.1-4.6-4.6s2.1-4.6,4.6-4.6c0.7,0,1.3,0.2,1.9,0.4v-0.4h2.6V-28.3z M-75.3-32.9c0-1.1-0.9-2-2-2c-1.1,0-2,0.9-2,2
		c0,1.1,0.9,2,2,2C-76.2-30.9-75.3-31.8-75.3-32.9 M-72.7-32.9c0,2.6-2.1,4.6-4.6,4.6c-0.7,0-1.4-0.2-2-0.5v2.5h-2.6v-11.3h2.6v0.4
		c0.6-0.3,1.3-0.5,2-0.5C-74.7-37.5-72.7-35.4-72.7-32.9 M-47.8-34.9c0.7,0,1.3,0.3,1.6,0.9l2.2-1.5c-0.9-1.3-2.3-2.1-3.8-2.1
		c-2.5,0-4.6,2.1-4.6,4.6s2.1,4.6,4.6,4.6c1.5,0,2.9-0.8,3.8-2.1l-2.2-1.5c-0.4,0.6-1,0.9-1.6,0.9c-1.1,0-2-0.9-2-2
		C-49.7-34-48.9-34.9-47.8-34.9 M-12.4-32.9c0-1.1-0.9-2-2-2c-1.1,0-2,0.9-2,2c0,1.1,0.9,2,2,2C-13.3-30.9-12.4-31.8-12.4-32.9
		 M-9.8-37.5v11.3h-2.6v-2.5c-0.6,0.3-1.3,0.5-2,0.5c-2.5,0-4.6-2.1-4.6-4.6s2.1-4.6,4.6-4.6c0.7,0,1.4,0.2,2,0.5v-0.4H-9.8z
		 M-21.4-41.6c-0.8,0-1.5,0.7-1.5,1.5s0.7,1.5,1.5,1.5c0.8,0,1.5-0.7,1.5-1.5C-19.9-40.9-20.6-41.6-21.4-41.6 M-22.7-37.5h2.6v9.2
		h-2.6V-37.5z"/>
</g>
<g transform="matrix(3.97803,0,0,3.97803,-296.22,456.919)">
	<path class="st2" d="M200.4,6.4c-1.3,0-2-0.7-2-2.2V1.9h-0.7V0.7h0.7v-1.2l1.5-0.1v1.3h1.2v1.2H200v2.3c0,0.6,0.3,0.9,0.8,0.9
		c0.2,0,0.4,0,0.6-0.1l0.1,1.2C201.1,6.3,200.8,6.4,200.4,6.4 M197.1,0.9L196.9,2c-0.4-0.2-0.9-0.3-1.2-0.3c-0.9,0-1.4,0.6-1.4,1.6
		c0,1.1,0.5,1.7,1.4,1.7c0.4,0,0.8-0.1,1.2-0.3l0.2,1.2c-0.4,0.2-0.9,0.3-1.6,0.3c-1.8,0-2.9-1.1-2.9-2.9c0-1.8,1-2.9,2.8-2.9
		C196.1,0.5,196.7,0.7,197.1,0.9 M190.5,5.1V4c-0.3-0.1-0.5-0.1-0.8-0.1c-0.5,0-0.9,0.2-0.9,0.7c0,0.5,0.3,0.7,0.9,0.7
		C190.1,5.3,190.4,5.2,190.5,5.1 M189.6,6.4c-1.5,0-2.2-0.7-2.2-1.7c0-1.1,0.9-1.7,2.2-1.7c0.3,0,0.7,0,1,0.1V2.8c0-0.7-0.4-1-1.1-1
		c-0.5,0-1,0.1-1.4,0.3l-0.3-1.2c0.5-0.2,1.2-0.3,1.9-0.3c1.6,0,2.4,0.9,2.4,2.3v3C191.5,6.1,190.7,6.4,189.6,6.4 M185.8,6.4
		c-1.3,0-2-0.7-2-2.2V1.9h-0.7V0.7h0.7v-1.2l1.5-0.1v1.3h1.2v1.2h-1.2v2.3c0,0.6,0.3,0.9,0.8,0.9c0.2,0,0.4,0,0.6-0.1l0.1,1.2
		C186.5,6.3,186.1,6.4,185.8,6.4 M177.4,6.2V1c0.7-0.3,1.6-0.5,2.5-0.5c1.6,0,2.5,0.8,2.5,2.2v3.5h-1.5V2.9c0-0.8-0.3-1.1-1-1.1
		c-0.3,0-0.7,0.1-1,0.2v4.3H177.4z M173.8,5.1c0.8,0,1.2-0.6,1.2-1.7c0-1-0.4-1.7-1.2-1.7c-0.8,0-1.2,0.6-1.2,1.7
		C172.6,4.5,173.1,5.1,173.8,5.1 M173.8,6.4c-1.7,0-2.7-1.2-2.7-2.9c0-1.7,1-2.9,2.7-2.9c1.7,0,2.7,1.2,2.7,2.9
		C176.6,5.2,175.5,6.4,173.8,6.4 M170.6,0.9L170.3,2c-0.4-0.2-0.9-0.3-1.2-0.3c-0.9,0-1.4,0.6-1.4,1.6c0,1.1,0.5,1.7,1.4,1.7
		c0.4,0,0.8-0.1,1.2-0.3l0.2,1.2c-0.4,0.2-0.9,0.3-1.6,0.3c-1.8,0-2.9-1.1-2.9-2.9c0-1.8,1-2.9,2.8-2.9
		C169.6,0.5,170.2,0.7,170.6,0.9 M160.3,6.2V1c0.7-0.3,1.6-0.5,2.5-0.5c1.6,0,2.5,0.8,2.5,2.2v3.5h-1.5V2.9c0-0.8-0.3-1.1-1-1.1
		c-0.3,0-0.7,0.1-1,0.2v4.3H160.3z M157.8,5.1V4c-0.3-0.1-0.5-0.1-0.8-0.1c-0.5,0-0.9,0.2-0.9,0.7c0,0.5,0.3,0.7,0.9,0.7
		C157.4,5.3,157.7,5.2,157.8,5.1 M156.9,6.4c-1.5,0-2.2-0.7-2.2-1.7c0-1.1,0.9-1.7,2.2-1.7c0.3,0,0.7,0,1,0.1V2.8c0-0.7-0.4-1-1.1-1
		c-0.5,0-1,0.1-1.4,0.3L155,0.9c0.5-0.2,1.2-0.3,1.9-0.3c1.6,0,2.4,0.9,2.4,2.3v3C158.8,6.1,158,6.4,156.9,6.4 M150,4.9h0.9
		c0.9,0,1.5-0.2,1.5-0.9c0-0.7-0.5-1-1.3-1H150V4.9z M150,1.8h1.1c0.7,0,1-0.3,1-1c0-0.7-0.5-0.9-1.3-0.9H150V1.8z M148.5,6.2v-7.6
		h2.4c1.7,0,2.8,0.6,2.8,2c0,0.8-0.3,1.3-0.8,1.6c0.7,0.3,1.1,1,1.1,1.8c0,1.5-1.1,2.3-2.9,2.3H148.5z"/>
</g>
<g transform="matrix(0,195.358,195.358,0,361.836,689.893)">
	
		<linearGradient id="SVGID_1_" gradientUnits="userSpaceOnUse" x1="-0.4563" y1="-1.844" x2="0.2448" y2="-1.844" gradientTransform="matrix(-0.2087 0.5619 -0.5619 -0.2087 -338.6156 -126.5129)">
		<stop  offset="0" style="stop-color:#005AB9"/>
		<stop  offset="1" style="stop-color:#1E3764"/>
	</linearGradient>
	<path class="st3" d="M-1.5-0.3h0.2v0.2c0,0.2-0.1,0.2-0.2,0.3V-0.3z"/>
</g>
<g transform="matrix(-146.109,144.445,144.445,146.109,722.47,603.828)">
	
		<linearGradient id="SVGID_2_" gradientUnits="userSpaceOnUse" x1="2.4857" y1="-2.4787" x2="3.1868" y2="-2.4787" gradientTransform="matrix(-0.5395 0.2612 -0.2612 -0.5395 -155.8355 -326.2015)">
		<stop  offset="0" style="stop-color:#FBA900"/>
		<stop  offset="1" style="stop-color:#FFD800"/>
	</linearGradient>
	<path class="st4" d="M0-1.8c0.1-0.1,0.2-0.1,0.4-0.1L0-1.5l-0.1-0.1L0-1.8z"/>
</g>
</svg>
